<mxfile host="65bd71144e">
    <diagram id="OWiyJCS3V9aMgBTq6S76" name="Page-1">
        <mxGraphModel dx="2398" dy="1624" grid="1" gridSize="10" guides="1" tooltips="1" connect="1" arrows="1" fold="1" page="1" pageScale="1" pageWidth="850" pageHeight="1100" math="0" shadow="0">
            <root>
                <mxCell id="0"/>
                <mxCell id="1" parent="0"/>
                <mxCell id="2" style="rounded=0;orthogonalLoop=1;jettySize=auto;html=1;entryX=0.5;entryY=1;entryDx=0;entryDy=0;fontColor=#000000;" edge="1" parent="1" target="50">
                    <mxGeometry relative="1" as="geometry">
                        <mxPoint x="530" y="-130" as="sourcePoint"/>
                    </mxGeometry>
                </mxCell>
                <mxCell id="3" style="rounded=0;orthogonalLoop=1;jettySize=auto;html=1;entryX=0.5;entryY=1;entryDx=0;entryDy=0;exitX=0.5;exitY=0;exitDx=0;exitDy=0;fontColor=#000000;" edge="1" parent="1" source="6" target="52">
                    <mxGeometry relative="1" as="geometry"/>
                </mxCell>
                <mxCell id="4" style="rounded=0;orthogonalLoop=1;jettySize=auto;html=1;exitX=0.5;exitY=0;exitDx=0;exitDy=0;entryX=0;entryY=1;entryDx=0;entryDy=0;fontColor=#000000;" edge="1" parent="1" source="6" target="51">
                    <mxGeometry relative="1" as="geometry"/>
                </mxCell>
                <mxCell id="5" style="rounded=0;orthogonalLoop=1;jettySize=auto;html=1;exitX=0.5;exitY=0;exitDx=0;exitDy=0;entryX=0.5;entryY=1;entryDx=0;entryDy=0;fontColor=#000000;" edge="1" parent="1" source="6" target="53">
                    <mxGeometry relative="1" as="geometry"/>
                </mxCell>
                <mxCell id="6" value="logins" style="whiteSpace=wrap;html=1;align=center;fillColor=#3399FF;strokeColor=#000000;fontColor=#000000;strokeWidth=2;rounded=0;fontSize=15;gradientColor=#9999FF;" vertex="1" parent="1">
                    <mxGeometry x="480" y="-130" width="100" height="40" as="geometry"/>
                </mxCell>
                <mxCell id="7" style="rounded=0;orthogonalLoop=1;jettySize=auto;html=1;entryX=0.5;entryY=1;entryDx=0;entryDy=0;exitX=0.5;exitY=0;exitDx=0;exitDy=0;fontColor=#000000;" edge="1" parent="1" source="102" target="66">
                    <mxGeometry relative="1" as="geometry">
                        <mxPoint x="1130" y="-650" as="sourcePoint"/>
                    </mxGeometry>
                </mxCell>
                <mxCell id="8" style="rounded=0;orthogonalLoop=1;jettySize=auto;html=1;entryX=0.5;entryY=1;entryDx=0;entryDy=0;exitX=0.5;exitY=0;exitDx=0;exitDy=0;fontColor=#000000;" edge="1" parent="1" source="102" target="65">
                    <mxGeometry relative="1" as="geometry">
                        <mxPoint x="1180" y="-620" as="sourcePoint"/>
                    </mxGeometry>
                </mxCell>
                <mxCell id="9" style="rounded=0;orthogonalLoop=1;jettySize=auto;html=1;exitX=0.5;exitY=0;exitDx=0;exitDy=0;entryX=0.5;entryY=1;entryDx=0;entryDy=0;fontColor=#000000;" edge="1" parent="1" source="102" target="62">
                    <mxGeometry relative="1" as="geometry">
                        <mxPoint x="1200" y="-560" as="sourcePoint"/>
                        <mxPoint x="1320" y="-610" as="targetPoint"/>
                    </mxGeometry>
                </mxCell>
                <mxCell id="10" style="rounded=0;orthogonalLoop=1;jettySize=auto;html=1;exitX=0.5;exitY=0;exitDx=0;exitDy=0;entryX=0.5;entryY=1;entryDx=0;entryDy=0;fontColor=#000000;" edge="1" parent="1" source="14" target="61">
                    <mxGeometry relative="1" as="geometry"/>
                </mxCell>
                <mxCell id="11" style="rounded=0;orthogonalLoop=1;jettySize=auto;html=1;exitX=0.5;exitY=0;exitDx=0;exitDy=0;entryX=0.5;entryY=1;entryDx=0;entryDy=0;fontColor=#000000;" edge="1" parent="1" source="14" target="67">
                    <mxGeometry relative="1" as="geometry"/>
                </mxCell>
                <mxCell id="12" style="rounded=0;orthogonalLoop=1;jettySize=auto;html=1;exitX=0.5;exitY=0;exitDx=0;exitDy=0;entryX=0.5;entryY=1;entryDx=0;entryDy=0;fontColor=#000000;" edge="1" parent="1" source="14" target="64">
                    <mxGeometry relative="1" as="geometry"/>
                </mxCell>
                <mxCell id="13" style="rounded=0;orthogonalLoop=1;jettySize=auto;html=1;exitX=0.5;exitY=0;exitDx=0;exitDy=0;entryX=0.5;entryY=1;entryDx=0;entryDy=0;fontColor=#000000;" edge="1" parent="1" source="14" target="63">
                    <mxGeometry relative="1" as="geometry"/>
                </mxCell>
                <mxCell id="14" value="students" style="whiteSpace=wrap;html=1;align=center;fillColor=#3399FF;strokeColor=#000000;fontColor=#000000;strokeWidth=2;rounded=0;fontSize=15;gradientColor=#9999FF;" vertex="1" parent="1">
                    <mxGeometry x="820" y="-340" width="110" height="40" as="geometry"/>
                </mxCell>
                <mxCell id="15" style="rounded=0;orthogonalLoop=1;jettySize=auto;html=1;exitX=0.5;exitY=1;exitDx=0;exitDy=0;entryX=0.5;entryY=0;entryDx=0;entryDy=0;fontColor=#000000;" edge="1" parent="1" source="20" target="58">
                    <mxGeometry relative="1" as="geometry"/>
                </mxCell>
                <mxCell id="16" style="rounded=0;orthogonalLoop=1;jettySize=auto;html=1;exitX=0.5;exitY=1;exitDx=0;exitDy=0;entryX=0.5;entryY=0;entryDx=0;entryDy=0;fontColor=#000000;" edge="1" parent="1" source="20" target="60">
                    <mxGeometry relative="1" as="geometry"/>
                </mxCell>
                <mxCell id="17" style="rounded=0;orthogonalLoop=1;jettySize=auto;html=1;exitX=0.5;exitY=1;exitDx=0;exitDy=0;entryX=0.5;entryY=0;entryDx=0;entryDy=0;fontColor=#000000;" edge="1" parent="1" source="20" target="59">
                    <mxGeometry relative="1" as="geometry"/>
                </mxCell>
                <mxCell id="18" style="rounded=0;orthogonalLoop=1;jettySize=auto;html=1;exitX=0.5;exitY=1;exitDx=0;exitDy=0;entryX=0.5;entryY=0;entryDx=0;entryDy=0;fontColor=#000000;" edge="1" parent="1" source="20" target="54">
                    <mxGeometry relative="1" as="geometry"/>
                </mxCell>
                <mxCell id="19" style="rounded=0;orthogonalLoop=1;jettySize=auto;html=1;exitX=0.5;exitY=1;exitDx=0;exitDy=0;entryX=0.5;entryY=0;entryDx=0;entryDy=0;fontColor=#000000;" edge="1" parent="1" source="20" target="57">
                    <mxGeometry relative="1" as="geometry"/>
                </mxCell>
                <mxCell id="20" value="instructors" style="whiteSpace=wrap;html=1;align=center;fillColor=#3399FF;strokeColor=#000000;fontColor=#000000;strokeWidth=2;rounded=0;fontSize=15;gradientColor=#9999FF;" vertex="1" parent="1">
                    <mxGeometry x="700" y="250" width="100" height="40" as="geometry"/>
                </mxCell>
                <mxCell id="21" style="rounded=0;orthogonalLoop=1;jettySize=auto;html=1;exitX=0;exitY=0.5;exitDx=0;exitDy=0;entryX=1;entryY=0.5;entryDx=0;entryDy=0;fontColor=#000000;" edge="1" parent="1" source="26" target="68">
                    <mxGeometry relative="1" as="geometry"/>
                </mxCell>
                <mxCell id="22" style="rounded=0;orthogonalLoop=1;jettySize=auto;html=1;exitX=0;exitY=0.5;exitDx=0;exitDy=0;entryX=1.007;entryY=0.422;entryDx=0;entryDy=0;entryPerimeter=0;fontColor=#000000;" edge="1" parent="1" source="26" target="70">
                    <mxGeometry relative="1" as="geometry"/>
                </mxCell>
                <mxCell id="23" style="rounded=0;orthogonalLoop=1;jettySize=auto;html=1;exitX=0;exitY=0.5;exitDx=0;exitDy=0;fontColor=#000000;" edge="1" parent="1" source="26" target="69">
                    <mxGeometry relative="1" as="geometry"/>
                </mxCell>
                <mxCell id="24" style="rounded=0;orthogonalLoop=1;jettySize=auto;html=1;exitX=0;exitY=0.5;exitDx=0;exitDy=0;entryX=1;entryY=0.5;entryDx=0;entryDy=0;fontColor=#000000;" edge="1" parent="1" source="26" target="71">
                    <mxGeometry relative="1" as="geometry"/>
                </mxCell>
                <mxCell id="25" style="rounded=0;orthogonalLoop=1;jettySize=auto;html=1;exitX=0;exitY=0.5;exitDx=0;exitDy=0;entryX=0.5;entryY=1;entryDx=0;entryDy=0;fontColor=#000000;" edge="1" parent="1" source="26" target="73">
                    <mxGeometry relative="1" as="geometry"/>
                </mxCell>
                <mxCell id="26" value="administrators" style="whiteSpace=wrap;html=1;align=center;fillColor=#3399FF;strokeColor=#000000;fontColor=#000000;strokeWidth=2;rounded=0;fontSize=15;gradientColor=#9999FF;" vertex="1" parent="1">
                    <mxGeometry x="-10" y="-110" width="110" height="40" as="geometry"/>
                </mxCell>
                <mxCell id="27" style="rounded=0;orthogonalLoop=1;jettySize=auto;html=1;exitX=1;exitY=0.5;exitDx=0;exitDy=0;fontColor=#000000;" edge="1" parent="1" source="32" target="75">
                    <mxGeometry relative="1" as="geometry"/>
                </mxCell>
                <mxCell id="28" style="rounded=0;orthogonalLoop=1;jettySize=auto;html=1;exitX=1;exitY=0.5;exitDx=0;exitDy=0;entryX=0;entryY=0.5;entryDx=0;entryDy=0;fontColor=#000000;" edge="1" parent="1" source="32" target="76">
                    <mxGeometry relative="1" as="geometry"/>
                </mxCell>
                <mxCell id="29" style="edgeStyle=none;rounded=0;orthogonalLoop=1;jettySize=auto;html=1;exitX=1;exitY=0.5;exitDx=0;exitDy=0;entryX=0;entryY=0;entryDx=0;entryDy=0;fontColor=#000000;" edge="1" parent="1" source="32" target="79">
                    <mxGeometry relative="1" as="geometry"/>
                </mxCell>
                <mxCell id="30" style="edgeStyle=none;rounded=0;orthogonalLoop=1;jettySize=auto;html=1;exitX=1;exitY=0.5;exitDx=0;exitDy=0;entryX=0;entryY=1;entryDx=0;entryDy=0;fontColor=#000000;" edge="1" parent="1" source="32" target="77">
                    <mxGeometry relative="1" as="geometry"/>
                </mxCell>
                <mxCell id="31" style="edgeStyle=none;rounded=0;orthogonalLoop=1;jettySize=auto;html=1;exitX=1;exitY=0.5;exitDx=0;exitDy=0;entryX=0;entryY=1;entryDx=0;entryDy=0;fontColor=#000000;" edge="1" parent="1" source="32" target="78">
                    <mxGeometry relative="1" as="geometry"/>
                </mxCell>
                <mxCell id="32" value="courses" style="whiteSpace=wrap;html=1;align=center;fillColor=#3399FF;strokeColor=#000000;fontColor=#000000;strokeWidth=2;rounded=0;fontSize=15;gradientColor=#9999FF;" vertex="1" parent="1">
                    <mxGeometry x="1180" y="-90" width="100" height="40" as="geometry"/>
                </mxCell>
                <mxCell id="33" style="edgeStyle=none;rounded=0;orthogonalLoop=1;jettySize=auto;html=1;exitX=1;exitY=0.5;exitDx=0;exitDy=0;entryX=0;entryY=0.5;entryDx=0;entryDy=0;fontColor=#000000;" edge="1" parent="1" source="37" target="82">
                    <mxGeometry relative="1" as="geometry"/>
                </mxCell>
                <mxCell id="34" style="edgeStyle=none;rounded=0;orthogonalLoop=1;jettySize=auto;html=1;exitX=1;exitY=0.5;exitDx=0;exitDy=0;entryX=-0.022;entryY=0.35;entryDx=0;entryDy=0;entryPerimeter=0;fontColor=#000000;" edge="1" parent="1" source="37" target="84">
                    <mxGeometry relative="1" as="geometry"/>
                </mxCell>
                <mxCell id="35" style="edgeStyle=none;rounded=0;orthogonalLoop=1;jettySize=auto;html=1;exitX=1;exitY=0.5;exitDx=0;exitDy=0;entryX=0;entryY=0;entryDx=0;entryDy=0;fontColor=#000000;" edge="1" parent="1" source="37" target="85">
                    <mxGeometry relative="1" as="geometry"/>
                </mxCell>
                <mxCell id="36" style="edgeStyle=none;rounded=0;orthogonalLoop=1;jettySize=auto;html=1;exitX=1;exitY=0.5;exitDx=0;exitDy=0;entryX=0;entryY=1;entryDx=0;entryDy=0;fontColor=#000000;" edge="1" parent="1" source="37" target="83">
                    <mxGeometry relative="1" as="geometry"/>
                </mxCell>
                <mxCell id="37" value="exams" style="whiteSpace=wrap;html=1;align=center;fillColor=#3399FF;strokeColor=#000000;fontColor=#000000;strokeWidth=3;rounded=0;fontSize=15;gradientColor=#9999FF;" vertex="1" parent="1">
                    <mxGeometry x="1560" y="280" width="80" height="40" as="geometry"/>
                </mxCell>
                <mxCell id="38" style="edgeStyle=none;rounded=0;orthogonalLoop=1;jettySize=auto;html=1;exitX=1;exitY=0.5;exitDx=0;exitDy=0;entryX=0;entryY=0.5;entryDx=0;entryDy=0;fontColor=#000000;" edge="1" parent="1" source="40" target="87">
                    <mxGeometry relative="1" as="geometry"/>
                </mxCell>
                <mxCell id="39" style="edgeStyle=none;rounded=0;orthogonalLoop=1;jettySize=auto;html=1;exitX=1;exitY=0.5;exitDx=0;exitDy=0;fontColor=#000000;" edge="1" parent="1" source="40" target="86">
                    <mxGeometry relative="1" as="geometry"/>
                </mxCell>
                <mxCell id="40" value="questions" style="whiteSpace=wrap;html=1;align=center;fillColor=#3399FF;strokeColor=#000000;fontColor=#000000;strokeWidth=2;rounded=0;fontSize=15;gradientColor=#9999FF;" vertex="1" parent="1">
                    <mxGeometry x="1810" y="60" width="100" height="40" as="geometry"/>
                </mxCell>
                <mxCell id="41" style="edgeStyle=none;rounded=0;orthogonalLoop=1;jettySize=auto;html=1;exitX=0.5;exitY=0;exitDx=0;exitDy=0;entryX=0.5;entryY=1;entryDx=0;entryDy=0;fontColor=#000000;" edge="1" parent="1" source="43" target="88">
                    <mxGeometry relative="1" as="geometry"/>
                </mxCell>
                <mxCell id="42" style="edgeStyle=none;rounded=0;orthogonalLoop=1;jettySize=auto;html=1;exitX=0.5;exitY=0;exitDx=0;exitDy=0;entryX=0.5;entryY=1;entryDx=0;entryDy=0;fontColor=#000000;" edge="1" parent="1" source="43" target="89">
                    <mxGeometry relative="1" as="geometry"/>
                </mxCell>
                <mxCell id="43" value="choices" style="whiteSpace=wrap;html=1;align=center;fillColor=#3399FF;strokeColor=#000000;fontColor=#000000;strokeWidth=2;rounded=0;fontSize=15;gradientColor=#9999FF;" vertex="1" parent="1">
                    <mxGeometry x="1980" y="-200" width="80" height="40" as="geometry"/>
                </mxCell>
                <mxCell id="44" style="edgeStyle=none;rounded=0;orthogonalLoop=1;jettySize=auto;html=1;exitX=0.5;exitY=0;exitDx=0;exitDy=0;entryX=0.5;entryY=1;entryDx=0;entryDy=0;fontColor=#000000;" edge="1" parent="1" source="49" target="92">
                    <mxGeometry relative="1" as="geometry"/>
                </mxCell>
                <mxCell id="45" style="edgeStyle=none;rounded=0;orthogonalLoop=1;jettySize=auto;html=1;exitX=0.5;exitY=0;exitDx=0;exitDy=0;entryX=0.5;entryY=1;entryDx=0;entryDy=0;fontColor=#000000;" edge="1" parent="1" source="49" target="96">
                    <mxGeometry relative="1" as="geometry"/>
                </mxCell>
                <mxCell id="46" style="edgeStyle=none;rounded=0;orthogonalLoop=1;jettySize=auto;html=1;exitX=0.5;exitY=0;exitDx=0;exitDy=0;entryX=0.5;entryY=1;entryDx=0;entryDy=0;fontColor=#000000;" edge="1" parent="1" source="49" target="94">
                    <mxGeometry relative="1" as="geometry"/>
                </mxCell>
                <mxCell id="47" style="edgeStyle=none;rounded=0;orthogonalLoop=1;jettySize=auto;html=1;exitX=0.5;exitY=0;exitDx=0;exitDy=0;entryX=0.5;entryY=1;entryDx=0;entryDy=0;fontColor=#000000;" edge="1" parent="1" source="49" target="95">
                    <mxGeometry relative="1" as="geometry"/>
                </mxCell>
                <mxCell id="48" style="edgeStyle=none;rounded=0;orthogonalLoop=1;jettySize=auto;html=1;exitX=0.5;exitY=0;exitDx=0;exitDy=0;entryX=1;entryY=1;entryDx=0;entryDy=0;fontColor=#000000;" edge="1" parent="1" source="49" target="93">
                    <mxGeometry relative="1" as="geometry"/>
                </mxCell>
                <mxCell id="49" value="containers" style="whiteSpace=wrap;html=1;align=center;fillColor=#3399FF;strokeColor=#000000;fontColor=#000000;strokeWidth=2;rounded=0;fontSize=15;gradientColor=#9999FF;" vertex="1" parent="1">
                    <mxGeometry x="60" y="-290" width="100" height="40" as="geometry"/>
                </mxCell>
                <mxCell id="50" value="&lt;b&gt;id&lt;/b&gt;" style="ellipse;whiteSpace=wrap;html=1;align=center;fontStyle=4;fillColor=#FF9999;gradientColor=#FF3333;strokeWidth=2;fontColor=#000000;" vertex="1" parent="1">
                    <mxGeometry x="505" y="-310" width="50" height="30" as="geometry"/>
                </mxCell>
                <mxCell id="51" value="last_login" style="ellipse;whiteSpace=wrap;html=1;align=center;fillColor=#FF9999;gradientColor=#FF3333;strokeWidth=2;fontColor=#000000;" vertex="1" parent="1">
                    <mxGeometry x="615" y="-260" width="75" height="40" as="geometry"/>
                </mxCell>
                <mxCell id="52" value="username" style="ellipse;whiteSpace=wrap;html=1;align=center;fillColor=#FF9999;gradientColor=#FF3333;strokeWidth=2;fontColor=#000000;" vertex="1" parent="1">
                    <mxGeometry x="360" y="-260" width="70" height="40" as="geometry"/>
                </mxCell>
                <mxCell id="53" value="password" style="ellipse;whiteSpace=wrap;html=1;align=center;fillColor=#FF9999;gradientColor=#FF3333;strokeWidth=2;fontColor=#000000;" vertex="1" parent="1">
                    <mxGeometry x="420" y="-305" width="70" height="40" as="geometry"/>
                </mxCell>
                <mxCell id="54" value="age" style="ellipse;whiteSpace=wrap;html=1;align=center;dashed=1;fillColor=#FF9999;gradientColor=#FF3333;strokeWidth=2;fontColor=#000000;" vertex="1" parent="1">
                    <mxGeometry x="580" y="460" width="50" height="40" as="geometry"/>
                </mxCell>
                <mxCell id="55" value="first_name" style="ellipse;whiteSpace=wrap;html=1;align=center;fillColor=#FFB570;gradientColor=#FF6666;strokeWidth=2;fontColor=#000000;fontSize=15;" vertex="1" parent="1">
                    <mxGeometry x="660" y="630" width="100" height="40" as="geometry"/>
                </mxCell>
                <mxCell id="56" value="third_name" style="ellipse;whiteSpace=wrap;html=1;align=center;fillColor=#FFB570;gradientColor=#FF6666;strokeWidth=2;fontColor=#000000;fontSize=15;" vertex="1" parent="1">
                    <mxGeometry x="882.5" y="650" width="90" height="40" as="geometry"/>
                </mxCell>
                <mxCell id="57" value="specialized_in" style="ellipse;whiteSpace=wrap;html=1;align=center;fillColor=#FF9999;gradientColor=#FF3333;strokeWidth=2;fontColor=#000000;" vertex="1" parent="1">
                    <mxGeometry x="945" y="470" width="85" height="40" as="geometry"/>
                </mxCell>
                <mxCell id="58" value="name" style="ellipse;whiteSpace=wrap;html=1;align=center;fillColor=#FFB570;gradientColor=#FF6666;strokeWidth=2;fontColor=#000000;fontSize=15;" vertex="1" parent="1">
                    <mxGeometry x="810" y="490" width="50" height="40" as="geometry"/>
                </mxCell>
                <mxCell id="59" value="birth_of_date" style="ellipse;whiteSpace=wrap;html=1;align=center;fillColor=#FF9999;gradientColor=#FF3333;strokeWidth=2;fontColor=#000000;" vertex="1" parent="1">
                    <mxGeometry x="640" y="480" width="90" height="40" as="geometry"/>
                </mxCell>
                <mxCell id="60" value="&lt;u&gt;&lt;b&gt;id&lt;/b&gt;&lt;/u&gt;" style="ellipse;whiteSpace=wrap;html=1;align=center;fillColor=#FF9999;gradientColor=#FF3333;strokeWidth=2;fontColor=#000000;" vertex="1" parent="1">
                    <mxGeometry x="740" y="490" width="60" height="40" as="geometry"/>
                </mxCell>
                <mxCell id="61" value="age" style="ellipse;whiteSpace=wrap;html=1;align=center;dashed=1;fillColor=#FF9999;gradientColor=#FF3333;strokeWidth=2;fontColor=#000000;" vertex="1" parent="1">
                    <mxGeometry x="640" y="-540" width="50" height="40" as="geometry"/>
                </mxCell>
                <mxCell id="62" value="third_name" style="ellipse;whiteSpace=wrap;html=1;align=center;fillColor=#FFB570;gradientColor=#FF6666;strokeWidth=2;fontColor=#000000;fontSize=15;" vertex="1" parent="1">
                    <mxGeometry x="1170" y="-720" width="90" height="40" as="geometry"/>
                </mxCell>
                <mxCell id="63" value="date_of_birth" style="ellipse;whiteSpace=wrap;html=1;align=center;fillColor=#FF9999;gradientColor=#FF3333;strokeWidth=2;fontColor=#000000;" vertex="1" parent="1">
                    <mxGeometry x="682.5" y="-580" width="80" height="40" as="geometry"/>
                </mxCell>
                <mxCell id="64" value="gender" style="ellipse;whiteSpace=wrap;html=1;align=center;fillColor=#FF9999;gradientColor=#FF3333;strokeWidth=2;fontColor=#000000;" vertex="1" parent="1">
                    <mxGeometry x="1030" y="-540" width="50" height="40" as="geometry"/>
                </mxCell>
                <mxCell id="65" value="second_name" style="ellipse;whiteSpace=wrap;html=1;align=center;fillColor=#FFB570;gradientColor=#FF6666;strokeWidth=2;fontColor=#000000;fontSize=15;" vertex="1" parent="1">
                    <mxGeometry x="1050" y="-720" width="110" height="40" as="geometry"/>
                </mxCell>
                <mxCell id="66" value="first_name" style="ellipse;whiteSpace=wrap;html=1;align=center;fillColor=#FFB570;gradientColor=#FF6666;strokeWidth=2;fontColor=#000000;fontSize=15;" vertex="1" parent="1">
                    <mxGeometry x="1000" y="-670" width="90" height="40" as="geometry"/>
                </mxCell>
                <mxCell id="67" value="location" style="ellipse;whiteSpace=wrap;html=1;align=center;fillColor=#FFB570;gradientColor=#FF6666;strokeWidth=2;fontColor=#000000;fontSize=15;" vertex="1" parent="1">
                    <mxGeometry x="770" y="-610" width="65" height="40" as="geometry"/>
                </mxCell>
                <mxCell id="68" value="&lt;b&gt;&lt;u&gt;id&lt;/u&gt;&lt;/b&gt;" style="ellipse;whiteSpace=wrap;html=1;align=center;fillColor=#FF9999;gradientColor=#FF3333;strokeWidth=2;fontColor=#000000;" vertex="1" parent="1">
                    <mxGeometry x="-230" y="-110" width="40" height="40" as="geometry"/>
                </mxCell>
                <mxCell id="69" value="age" style="ellipse;whiteSpace=wrap;html=1;align=center;dashed=1;fillColor=#FF9999;gradientColor=#FF3333;strokeWidth=2;fontColor=#000000;" vertex="1" parent="1">
                    <mxGeometry x="-240" y="10" width="50" height="40" as="geometry"/>
                </mxCell>
                <mxCell id="70" value="birth_of_date" style="ellipse;whiteSpace=wrap;html=1;align=center;fillColor=#FF9999;gradientColor=#FF3333;strokeWidth=2;fontColor=#000000;" vertex="1" parent="1">
                    <mxGeometry x="-270" y="-40" width="80" height="40" as="geometry"/>
                </mxCell>
                <mxCell id="71" value="name" style="ellipse;whiteSpace=wrap;html=1;align=center;fontSize=15;fontColor=#000000;strokeWidth=2;fillColor=#FFB570;gradientColor=#FF6666;" vertex="1" parent="1">
                    <mxGeometry x="-200" y="-180" width="50" height="40" as="geometry"/>
                </mxCell>
                <mxCell id="72" value="location" style="ellipse;whiteSpace=wrap;html=1;align=center;fillColor=#FFB570;gradientColor=#FF6666;strokeWidth=2;fontColor=#000000;fontSize=15;" vertex="1" parent="1">
                    <mxGeometry x="-160" y="-240" width="65" height="40" as="geometry"/>
                </mxCell>
                <mxCell id="73" value="image" style="ellipse;whiteSpace=wrap;html=1;align=center;fillColor=#FF9999;gradientColor=#FF3333;strokeWidth=2;fontColor=#000000;" vertex="1" parent="1">
                    <mxGeometry x="-85" y="-260" width="50" height="40" as="geometry"/>
                </mxCell>
                <mxCell id="74" style="rounded=0;orthogonalLoop=1;jettySize=auto;html=1;exitX=0;exitY=0.5;exitDx=0;exitDy=0;entryX=0.721;entryY=0.986;entryDx=0;entryDy=0;entryPerimeter=0;fontColor=#000000;" edge="1" parent="1" source="26" target="72">
                    <mxGeometry relative="1" as="geometry"/>
                </mxCell>
                <mxCell id="75" value="&lt;b&gt;id&lt;/b&gt;" style="ellipse;whiteSpace=wrap;html=1;align=center;fontStyle=4;fillColor=#FF9999;gradientColor=#FF3333;strokeWidth=2;fontColor=#000000;" vertex="1" parent="1">
                    <mxGeometry x="1420" y="-90" width="40" height="40" as="geometry"/>
                </mxCell>
                <mxCell id="76" value="code" style="ellipse;whiteSpace=wrap;html=1;align=center;fillColor=#FF9999;gradientColor=#FF3333;strokeWidth=2;fontColor=#000000;" vertex="1" parent="1">
                    <mxGeometry x="1352.5" y="10" width="45" height="40" as="geometry"/>
                </mxCell>
                <mxCell id="77" value="duration" style="ellipse;whiteSpace=wrap;html=1;align=center;fillColor=#FF9999;gradientColor=#FF3333;strokeWidth=2;fontColor=#000000;" vertex="1" parent="1">
                    <mxGeometry x="1380" y="-140" width="60" height="40" as="geometry"/>
                </mxCell>
                <mxCell id="78" value="title" style="ellipse;whiteSpace=wrap;html=1;align=center;fillColor=#FF9999;gradientColor=#FF3333;strokeWidth=2;fontColor=#000000;" vertex="1" parent="1">
                    <mxGeometry x="1350" y="-187.5" width="50" height="40" as="geometry"/>
                </mxCell>
                <mxCell id="79" value="description" style="ellipse;whiteSpace=wrap;html=1;align=center;fillColor=#FF9999;gradientColor=#FF3333;strokeWidth=2;fontColor=#000000;" vertex="1" parent="1">
                    <mxGeometry x="1375" y="-35" width="70" height="40" as="geometry"/>
                </mxCell>
                <mxCell id="80" value="" style="endArrow=none;html=1;rounded=0;entryX=0.5;entryY=0;entryDx=0;entryDy=0;exitX=1;exitY=0.5;exitDx=0;exitDy=0;edgeStyle=orthogonalEdgeStyle;fontColor=#000000;" edge="1" parent="1" source="166" target="32">
                    <mxGeometry relative="1" as="geometry">
                        <mxPoint x="1170" y="-190" as="sourcePoint"/>
                        <mxPoint x="1230" y="-220" as="targetPoint"/>
                    </mxGeometry>
                </mxCell>
                <mxCell id="81" value="" style="resizable=0;html=1;whiteSpace=wrap;align=right;verticalAlign=bottom;fontColor=#000000;" connectable="0" vertex="1" parent="80">
                    <mxGeometry x="1" relative="1" as="geometry">
                        <mxPoint x="-10" as="offset"/>
                    </mxGeometry>
                </mxCell>
                <mxCell id="82" value="&lt;b&gt;id&lt;/b&gt;" style="ellipse;whiteSpace=wrap;html=1;align=center;fontStyle=4;fillColor=#FF9999;gradientColor=#FF3333;strokeWidth=2;fontColor=#000000;" vertex="1" parent="1">
                    <mxGeometry x="1785" y="270" width="30" height="30" as="geometry"/>
                </mxCell>
                <mxCell id="83" value="score" style="ellipse;whiteSpace=wrap;html=1;align=center;fillColor=#FF9999;gradientColor=#FF3333;strokeWidth=2;fontColor=#000000;" vertex="1" parent="1">
                    <mxGeometry x="1780" y="210" width="40" height="30" as="geometry"/>
                </mxCell>
                <mxCell id="84" value="start_at" style="ellipse;whiteSpace=wrap;html=1;align=center;fillColor=#FF9999;gradientColor=#FF3333;strokeWidth=2;fontColor=#000000;" vertex="1" parent="1">
                    <mxGeometry x="1775" y="320" width="50" height="40" as="geometry"/>
                </mxCell>
                <mxCell id="85" value="end_at" style="ellipse;whiteSpace=wrap;html=1;align=center;fillColor=#FF9999;gradientColor=#FF3333;strokeWidth=2;fontColor=#000000;" vertex="1" parent="1">
                    <mxGeometry x="1777.5" y="390" width="45" height="30" as="geometry"/>
                </mxCell>
                <mxCell id="86" value="&lt;b&gt;id&lt;/b&gt;" style="ellipse;whiteSpace=wrap;html=1;align=center;fontStyle=4;fillColor=#FF9999;gradientColor=#FF3333;strokeWidth=2;fontColor=#000000;" vertex="1" parent="1">
                    <mxGeometry x="2032.5" y="110" width="35" height="30" as="geometry"/>
                </mxCell>
                <mxCell id="87" value="description" style="ellipse;whiteSpace=wrap;html=1;align=center;fillColor=#FF9999;gradientColor=#FF3333;strokeWidth=2;fontColor=#000000;" vertex="1" parent="1">
                    <mxGeometry x="2020" y="30" width="60" height="40" as="geometry"/>
                </mxCell>
                <mxCell id="88" value="&lt;b&gt;id&lt;/b&gt;" style="ellipse;whiteSpace=wrap;html=1;align=center;fontStyle=4;fillColor=#FF9999;gradientColor=#FF3333;strokeWidth=2;fontColor=#000000;" vertex="1" parent="1">
                    <mxGeometry x="1960" y="-335" width="40" height="30" as="geometry"/>
                </mxCell>
                <mxCell id="89" value="description" style="ellipse;whiteSpace=wrap;html=1;align=center;fillColor=#FF9999;gradientColor=#FF3333;strokeWidth=2;fontColor=#000000;" vertex="1" parent="1">
                    <mxGeometry x="2030" y="-340" width="70" height="40" as="geometry"/>
                </mxCell>
                <mxCell id="90" value="" style="endArrow=none;html=1;rounded=0;entryX=0;entryY=0.5;entryDx=0;entryDy=0;edgeStyle=orthogonalEdgeStyle;exitX=1;exitY=0.5;exitDx=0;exitDy=0;fontColor=#000000;" edge="1" parent="1" source="14" target="181">
                    <mxGeometry relative="1" as="geometry">
                        <mxPoint x="940" y="-320" as="sourcePoint"/>
                        <mxPoint x="1520" y="-321" as="targetPoint"/>
                        <Array as="points">
                            <mxPoint x="1550" y="-321"/>
                        </Array>
                    </mxGeometry>
                </mxCell>
                <mxCell id="91" value="" style="endArrow=none;html=1;rounded=0;exitX=0.25;exitY=0;exitDx=0;exitDy=0;edgeStyle=orthogonalEdgeStyle;entryX=0.5;entryY=1;entryDx=0;entryDy=0;fontColor=#000000;" edge="1" parent="1" source="37" target="181">
                    <mxGeometry relative="1" as="geometry">
                        <mxPoint x="930" y="-320" as="sourcePoint"/>
                        <mxPoint x="1590" y="-270" as="targetPoint"/>
                        <Array as="points"/>
                    </mxGeometry>
                </mxCell>
                <mxCell id="92" value="&lt;b&gt;id&lt;/b&gt;" style="ellipse;whiteSpace=wrap;html=1;align=center;fontStyle=4;fillColor=#FF9999;gradientColor=#FF3333;strokeWidth=2;fontColor=#000000;" vertex="1" parent="1">
                    <mxGeometry x="80" y="-540" width="60" height="40" as="geometry"/>
                </mxCell>
                <mxCell id="93" value="status" style="ellipse;whiteSpace=wrap;html=1;align=center;fillColor=#FF9999;gradientColor=#FF3333;strokeWidth=2;fontColor=#000000;" vertex="1" parent="1">
                    <mxGeometry x="-35" y="-460" width="60" height="40" as="geometry"/>
                </mxCell>
                <mxCell id="94" value="ssh_port" style="ellipse;whiteSpace=wrap;html=1;align=center;fillColor=#FF9999;gradientColor=#FF3333;strokeWidth=2;fontColor=#000000;" vertex="1" parent="1">
                    <mxGeometry x="140" y="-510" width="75" height="40" as="geometry"/>
                </mxCell>
                <mxCell id="95" value="ip_address" style="ellipse;whiteSpace=wrap;html=1;align=center;fillColor=#FF9999;gradientColor=#FF3333;strokeWidth=2;fontColor=#000000;" vertex="1" parent="1">
                    <mxGeometry x="190" y="-460" width="90" height="40" as="geometry"/>
                </mxCell>
                <mxCell id="96" value="identifier" style="ellipse;whiteSpace=wrap;html=1;align=center;fillColor=#FF9999;gradientColor=#FF3333;strokeWidth=2;fontColor=#000000;" vertex="1" parent="1">
                    <mxGeometry x="5" y="-510" width="80" height="40" as="geometry"/>
                </mxCell>
                <mxCell id="97" value="fourth_name" style="ellipse;whiteSpace=wrap;html=1;align=center;fillColor=#FFB570;gradientColor=#FF6666;strokeWidth=2;fontColor=#000000;fontSize=15;" vertex="1" parent="1">
                    <mxGeometry x="1240" y="-670" width="100" height="40" as="geometry"/>
                </mxCell>
                <mxCell id="98" style="rounded=0;orthogonalLoop=1;jettySize=auto;html=1;entryX=0.5;entryY=1;entryDx=0;entryDy=0;exitX=0.5;exitY=0;exitDx=0;exitDy=0;fontColor=#000000;" edge="1" parent="1" source="102" target="97">
                    <mxGeometry relative="1" as="geometry">
                        <mxPoint x="1220" y="-530" as="sourcePoint"/>
                        <mxPoint x="1235" y="-636" as="targetPoint"/>
                    </mxGeometry>
                </mxCell>
                <mxCell id="99" value="&lt;u&gt;&lt;b&gt;id&lt;/b&gt;&lt;/u&gt;" style="ellipse;whiteSpace=wrap;html=1;align=center;fillColor=#FF9999;gradientColor=#FF3333;strokeWidth=2;fontColor=#000000;" vertex="1" parent="1">
                    <mxGeometry x="850" y="-620" width="50" height="40" as="geometry"/>
                </mxCell>
                <mxCell id="100" style="rounded=0;orthogonalLoop=1;jettySize=auto;html=1;entryX=0.5;entryY=1;entryDx=0;entryDy=0;exitX=0.5;exitY=0;exitDx=0;exitDy=0;fontColor=#000000;" edge="1" parent="1" source="14" target="99">
                    <mxGeometry relative="1" as="geometry">
                        <mxPoint x="875" y="-340" as="sourcePoint"/>
                        <mxPoint x="650" y="-450" as="targetPoint"/>
                    </mxGeometry>
                </mxCell>
                <mxCell id="101" style="edgeStyle=orthogonalEdgeStyle;rounded=0;orthogonalLoop=1;jettySize=auto;html=1;exitX=0.5;exitY=1;exitDx=0;exitDy=0;fontColor=#000000;" edge="1" parent="1" source="62" target="62">
                    <mxGeometry relative="1" as="geometry"/>
                </mxCell>
                <mxCell id="102" value="name" style="ellipse;whiteSpace=wrap;html=1;align=center;fillColor=#FFB570;gradientColor=#FF6666;strokeWidth=2;fontColor=#000000;fontSize=15;" vertex="1" parent="1">
                    <mxGeometry x="1090" y="-510" width="50" height="40" as="geometry"/>
                </mxCell>
                <mxCell id="103" style="rounded=0;orthogonalLoop=1;jettySize=auto;html=1;exitX=0.5;exitY=0;exitDx=0;exitDy=0;fontColor=#000000;" edge="1" parent="1" source="14" target="102">
                    <mxGeometry relative="1" as="geometry">
                        <mxPoint x="870" y="-360" as="sourcePoint"/>
                        <mxPoint x="982" y="-619" as="targetPoint"/>
                    </mxGeometry>
                </mxCell>
                <mxCell id="104" value="country" style="ellipse;whiteSpace=wrap;html=1;align=center;fillColor=#FFB570;gradientColor=#FF6666;strokeWidth=2;fontColor=#000000;fontSize=15;" vertex="1" parent="1">
                    <mxGeometry x="762.5" y="-730" width="60" height="40" as="geometry"/>
                </mxCell>
                <mxCell id="105" value="city" style="ellipse;whiteSpace=wrap;html=1;align=center;fillColor=#FFB570;gradientColor=#FF6666;strokeWidth=2;fontColor=#000000;fontSize=15;" vertex="1" parent="1">
                    <mxGeometry x="835" y="-710" width="45" height="40" as="geometry"/>
                </mxCell>
                <mxCell id="106" value="address" style="ellipse;whiteSpace=wrap;html=1;align=center;fillColor=#FFB570;gradientColor=#FF6666;strokeWidth=2;fontColor=#000000;fontSize=15;" vertex="1" parent="1">
                    <mxGeometry x="700" y="-700" width="65" height="40" as="geometry"/>
                </mxCell>
                <mxCell id="107" value="" style="endArrow=classic;html=1;rounded=0;entryX=0.5;entryY=1;entryDx=0;entryDy=0;exitX=0.5;exitY=0;exitDx=0;exitDy=0;fontColor=#000000;" edge="1" parent="1" source="67" target="104">
                    <mxGeometry width="50" height="50" relative="1" as="geometry">
                        <mxPoint x="840" y="-610" as="sourcePoint"/>
                        <mxPoint x="890" y="-660" as="targetPoint"/>
                    </mxGeometry>
                </mxCell>
                <mxCell id="108" value="" style="endArrow=classic;html=1;rounded=0;entryX=0.5;entryY=1;entryDx=0;entryDy=0;exitX=0.5;exitY=0;exitDx=0;exitDy=0;fontColor=#000000;" edge="1" parent="1" source="67" target="105">
                    <mxGeometry width="50" height="50" relative="1" as="geometry">
                        <mxPoint x="803" y="-600" as="sourcePoint"/>
                        <mxPoint x="803" y="-690" as="targetPoint"/>
                    </mxGeometry>
                </mxCell>
                <mxCell id="109" value="" style="endArrow=classic;html=1;rounded=0;exitX=0.5;exitY=0;exitDx=0;exitDy=0;entryX=0.5;entryY=1;entryDx=0;entryDy=0;fontColor=#000000;" edge="1" parent="1" source="67" target="106">
                    <mxGeometry width="50" height="50" relative="1" as="geometry">
                        <mxPoint x="775" y="-598" as="sourcePoint"/>
                        <mxPoint x="742" y="-676" as="targetPoint"/>
                    </mxGeometry>
                </mxCell>
                <mxCell id="110" value="fourth_name" style="ellipse;whiteSpace=wrap;html=1;align=center;fillColor=#FFB570;gradientColor=#FF6666;strokeWidth=2;fontColor=#000000;fontSize=15;" vertex="1" parent="1">
                    <mxGeometry x="985" y="640" width="105" height="40" as="geometry"/>
                </mxCell>
                <mxCell id="111" value="second_name" style="ellipse;whiteSpace=wrap;html=1;align=center;fillColor=#FFB570;gradientColor=#FF6666;strokeWidth=2;fontColor=#000000;fontSize=15;" vertex="1" parent="1">
                    <mxGeometry x="765" y="650" width="110" height="40" as="geometry"/>
                </mxCell>
                <mxCell id="112" value="" style="endArrow=classic;html=1;rounded=0;entryX=0.5;entryY=0;entryDx=0;entryDy=0;exitX=0.5;exitY=1;exitDx=0;exitDy=0;fontColor=#000000;" edge="1" parent="1" source="58" target="55">
                    <mxGeometry width="50" height="50" relative="1" as="geometry">
                        <mxPoint x="760" y="530" as="sourcePoint"/>
                        <mxPoint x="810" y="480" as="targetPoint"/>
                    </mxGeometry>
                </mxCell>
                <mxCell id="113" value="" style="endArrow=classic;html=1;rounded=0;exitX=0.5;exitY=1;exitDx=0;exitDy=0;entryX=0.5;entryY=0;entryDx=0;entryDy=0;fontColor=#000000;" edge="1" parent="1" source="58" target="111">
                    <mxGeometry width="50" height="50" relative="1" as="geometry">
                        <mxPoint x="919.72" y="494" as="sourcePoint"/>
                        <mxPoint x="920" y="620" as="targetPoint"/>
                    </mxGeometry>
                </mxCell>
                <mxCell id="114" value="" style="endArrow=classic;html=1;rounded=0;exitX=0.5;exitY=1;exitDx=0;exitDy=0;entryX=0;entryY=0;entryDx=0;entryDy=0;fontColor=#000000;" edge="1" parent="1" source="58" target="110">
                    <mxGeometry width="50" height="50" relative="1" as="geometry">
                        <mxPoint x="870" y="540" as="sourcePoint"/>
                        <mxPoint x="930" y="650" as="targetPoint"/>
                    </mxGeometry>
                </mxCell>
                <mxCell id="115" value="" style="endArrow=classic;html=1;rounded=0;entryX=0.5;entryY=0;entryDx=0;entryDy=0;exitX=0.5;exitY=1;exitDx=0;exitDy=0;fontColor=#000000;" edge="1" parent="1" source="58" target="56">
                    <mxGeometry width="50" height="50" relative="1" as="geometry">
                        <mxPoint x="880" y="550" as="sourcePoint"/>
                        <mxPoint x="940" y="660" as="targetPoint"/>
                    </mxGeometry>
                </mxCell>
                <mxCell id="116" style="rounded=0;orthogonalLoop=1;jettySize=auto;html=1;entryX=0.5;entryY=0;entryDx=0;entryDy=0;exitX=0.5;exitY=1;exitDx=0;exitDy=0;fontColor=#000000;" edge="1" parent="1" source="20" target="132">
                    <mxGeometry relative="1" as="geometry">
                        <mxPoint x="880" y="760" as="sourcePoint"/>
                        <mxPoint x="920" y="550" as="targetPoint"/>
                    </mxGeometry>
                </mxCell>
                <mxCell id="117" value="email" style="ellipse;whiteSpace=wrap;html=1;align=center;fillColor=#FF9999;gradientColor=#FF3333;strokeWidth=2;fontColor=#000000;" vertex="1" parent="1">
                    <mxGeometry x="530" y="435" width="50" height="40" as="geometry"/>
                </mxCell>
                <mxCell id="118" style="rounded=0;orthogonalLoop=1;jettySize=auto;html=1;entryX=0.5;entryY=0;entryDx=0;entryDy=0;fontColor=#000000;" edge="1" parent="1" target="117">
                    <mxGeometry relative="1" as="geometry">
                        <mxPoint x="750" y="290" as="sourcePoint"/>
                    </mxGeometry>
                </mxCell>
                <mxCell id="119" value="gender" style="ellipse;whiteSpace=wrap;html=1;align=center;fillColor=#FF9999;gradientColor=#FF3333;strokeWidth=2;fontColor=#000000;" vertex="1" parent="1">
                    <mxGeometry x="1020" y="435" width="50" height="40" as="geometry"/>
                </mxCell>
                <mxCell id="120" style="rounded=0;orthogonalLoop=1;jettySize=auto;html=1;entryX=0.5;entryY=0;entryDx=0;entryDy=0;exitX=0.458;exitY=0.975;exitDx=0;exitDy=0;exitPerimeter=0;fontColor=#000000;" edge="1" parent="1" source="20" target="119">
                    <mxGeometry relative="1" as="geometry">
                        <mxPoint x="720" y="270" as="sourcePoint"/>
                    </mxGeometry>
                </mxCell>
                <mxCell id="121" value="email" style="ellipse;whiteSpace=wrap;html=1;align=center;fillColor=#FF9999;gradientColor=#FF3333;strokeWidth=2;fontColor=#000000;" vertex="1" parent="1">
                    <mxGeometry x="985" y="-580" width="50" height="40" as="geometry"/>
                </mxCell>
                <mxCell id="122" style="rounded=0;orthogonalLoop=1;jettySize=auto;html=1;entryX=0.5;entryY=1;entryDx=0;entryDy=0;exitX=0.5;exitY=0;exitDx=0;exitDy=0;fontColor=#000000;" edge="1" parent="1" source="14" target="121">
                    <mxGeometry relative="1" as="geometry">
                        <mxPoint x="870" y="-340" as="sourcePoint"/>
                    </mxGeometry>
                </mxCell>
                <mxCell id="123" value="joined_at" style="ellipse;whiteSpace=wrap;html=1;align=center;fillColor=#FF9999;gradientColor=#FF3333;strokeWidth=2;fontColor=#000000;" vertex="1" parent="1">
                    <mxGeometry x="600" y="-490" width="60" height="40" as="geometry"/>
                </mxCell>
                <mxCell id="124" style="rounded=0;orthogonalLoop=1;jettySize=auto;html=1;exitX=0.5;exitY=0;exitDx=0;exitDy=0;entryX=0.5;entryY=1;entryDx=0;entryDy=0;fontColor=#000000;" edge="1" parent="1" source="14" target="123">
                    <mxGeometry relative="1" as="geometry">
                        <mxPoint x="810" y="-320" as="sourcePoint"/>
                    </mxGeometry>
                </mxCell>
                <mxCell id="125" value="image" style="ellipse;whiteSpace=wrap;html=1;align=center;fillColor=#FF9999;gradientColor=#FF3333;strokeWidth=2;fontColor=#000000;" vertex="1" parent="1">
                    <mxGeometry x="1100" y="-460" width="50" height="40" as="geometry"/>
                </mxCell>
                <mxCell id="126" style="rounded=0;orthogonalLoop=1;jettySize=auto;html=1;entryX=0.5;entryY=1;entryDx=0;entryDy=0;exitX=0.5;exitY=0;exitDx=0;exitDy=0;fontColor=#000000;" edge="1" parent="1" source="14" target="125">
                    <mxGeometry relative="1" as="geometry">
                        <mxPoint x="870" y="-360" as="sourcePoint"/>
                    </mxGeometry>
                </mxCell>
                <mxCell id="127" style="rounded=0;orthogonalLoop=1;jettySize=auto;html=1;entryX=0.5;entryY=1;entryDx=0;entryDy=0;exitX=0.5;exitY=0;exitDx=0;exitDy=0;fontColor=#000000;" edge="1" parent="1" source="14" target="183">
                    <mxGeometry relative="1" as="geometry">
                        <mxPoint x="870" y="-340" as="sourcePoint"/>
                        <mxPoint x="880" y="-540" as="targetPoint"/>
                    </mxGeometry>
                </mxCell>
                <mxCell id="128" value="image" style="ellipse;whiteSpace=wrap;html=1;align=center;fillColor=#FF9999;gradientColor=#FF3333;strokeWidth=2;fontColor=#000000;" vertex="1" parent="1">
                    <mxGeometry x="490" y="402.5" width="50" height="40" as="geometry"/>
                </mxCell>
                <mxCell id="129" style="rounded=0;orthogonalLoop=1;jettySize=auto;html=1;entryX=0.5;entryY=0;entryDx=0;entryDy=0;exitX=0.5;exitY=1;exitDx=0;exitDy=0;fontColor=#000000;" edge="1" parent="1" source="20" target="128">
                    <mxGeometry relative="1" as="geometry">
                        <mxPoint x="720" y="277.5" as="sourcePoint"/>
                    </mxGeometry>
                </mxCell>
                <mxCell id="130" value="joined_at" style="ellipse;whiteSpace=wrap;html=1;align=center;fillColor=#FF9999;gradientColor=#FF3333;strokeWidth=2;fontColor=#000000;" vertex="1" parent="1">
                    <mxGeometry x="1060" y="395" width="60" height="40" as="geometry"/>
                </mxCell>
                <mxCell id="131" style="rounded=0;orthogonalLoop=1;jettySize=auto;html=1;entryX=0.5;entryY=0;entryDx=0;entryDy=0;exitX=0.5;exitY=1;exitDx=0;exitDy=0;fontColor=#000000;" edge="1" parent="1" source="20" target="130">
                    <mxGeometry relative="1" as="geometry">
                        <mxPoint x="822.5" y="300" as="sourcePoint"/>
                    </mxGeometry>
                </mxCell>
                <mxCell id="132" value="" style="ellipse;whiteSpace=wrap;html=1;fontColor=#000000;" vertex="1" parent="1">
                    <mxGeometry x="870" y="480" width="70" height="50" as="geometry"/>
                </mxCell>
                <mxCell id="133" value="phones" style="ellipse;whiteSpace=wrap;html=1;align=center;fillColor=#FF9999;gradientColor=#FF3333;strokeWidth=2;fontColor=#000000;" vertex="1" parent="1">
                    <mxGeometry x="873.75" y="485" width="62.5" height="40" as="geometry"/>
                </mxCell>
                <mxCell id="134" value="location" style="ellipse;whiteSpace=wrap;html=1;align=center;fillColor=#FFB570;gradientColor=#FF6666;strokeWidth=2;fontColor=#000000;fontSize=15;" vertex="1" parent="1">
                    <mxGeometry x="420" y="370" width="70" height="40" as="geometry"/>
                </mxCell>
                <mxCell id="135" style="rounded=0;orthogonalLoop=1;jettySize=auto;html=1;exitX=0.5;exitY=1;exitDx=0;exitDy=0;entryX=0.5;entryY=0;entryDx=0;entryDy=0;fontColor=#000000;" edge="1" parent="1" source="20" target="134">
                    <mxGeometry relative="1" as="geometry">
                        <mxPoint x="390" y="190" as="sourcePoint"/>
                    </mxGeometry>
                </mxCell>
                <mxCell id="136" value="" style="endArrow=classic;html=1;rounded=0;entryX=0.5;entryY=0;entryDx=0;entryDy=0;exitX=0.5;exitY=1;exitDx=0;exitDy=0;fontColor=#000000;" edge="1" parent="1" source="134" target="141">
                    <mxGeometry width="50" height="50" relative="1" as="geometry">
                        <mxPoint x="390" y="410" as="sourcePoint"/>
                        <mxPoint x="440" y="360" as="targetPoint"/>
                    </mxGeometry>
                </mxCell>
                <mxCell id="137" value="" style="endArrow=classic;html=1;rounded=0;exitX=0.5;exitY=1;exitDx=0;exitDy=0;entryX=0.5;entryY=0;entryDx=0;entryDy=0;fontColor=#000000;" edge="1" parent="1" source="134" target="140">
                    <mxGeometry width="50" height="50" relative="1" as="geometry">
                        <mxPoint x="549.72" y="374" as="sourcePoint"/>
                        <mxPoint x="550" y="500" as="targetPoint"/>
                    </mxGeometry>
                </mxCell>
                <mxCell id="138" value="" style="endArrow=classic;html=1;rounded=0;entryX=0.5;entryY=0;entryDx=0;entryDy=0;exitX=0.5;exitY=1;exitDx=0;exitDy=0;fontColor=#000000;" edge="1" parent="1" source="134" target="139">
                    <mxGeometry width="50" height="50" relative="1" as="geometry">
                        <mxPoint x="510" y="430" as="sourcePoint"/>
                        <mxPoint x="570" y="540" as="targetPoint"/>
                    </mxGeometry>
                </mxCell>
                <mxCell id="139" value="address" style="ellipse;whiteSpace=wrap;html=1;align=center;fillColor=#FFB570;gradientColor=#FF6666;strokeWidth=2;fontColor=#000000;fontSize=15;" vertex="1" parent="1">
                    <mxGeometry x="480" y="520" width="60" height="40" as="geometry"/>
                </mxCell>
                <mxCell id="140" value="city" style="ellipse;whiteSpace=wrap;html=1;align=center;fillColor=#FFB570;gradientColor=#FF6666;strokeWidth=2;fontColor=#000000;fontSize=15;" vertex="1" parent="1">
                    <mxGeometry x="430" y="530" width="40" height="40" as="geometry"/>
                </mxCell>
                <mxCell id="141" value="country" style="ellipse;whiteSpace=wrap;html=1;align=center;fillColor=#FFB570;gradientColor=#FF6666;strokeWidth=2;fontColor=#000000;fontSize=15;" vertex="1" parent="1">
                    <mxGeometry x="360" y="510" width="60" height="40" as="geometry"/>
                </mxCell>
                <mxCell id="142" value="email" style="ellipse;whiteSpace=wrap;html=1;align=center;fillColor=#FF9999;gradientColor=#FF3333;strokeWidth=2;fontColor=#000000;" vertex="1" parent="1">
                    <mxGeometry x="-145" y="90" width="50" height="40" as="geometry"/>
                </mxCell>
                <mxCell id="143" style="rounded=0;orthogonalLoop=1;jettySize=auto;html=1;fontColor=#000000;" edge="1" parent="1" target="142">
                    <mxGeometry relative="1" as="geometry">
                        <mxPoint x="-10" y="-90" as="sourcePoint"/>
                    </mxGeometry>
                </mxCell>
                <mxCell id="144" value="gender" style="ellipse;whiteSpace=wrap;html=1;align=center;fillColor=#FF9999;gradientColor=#FF3333;strokeWidth=2;fontColor=#000000;" vertex="1" parent="1">
                    <mxGeometry x="-200" y="60" width="50" height="40" as="geometry"/>
                </mxCell>
                <mxCell id="145" style="rounded=0;orthogonalLoop=1;jettySize=auto;html=1;exitX=0;exitY=0.5;exitDx=0;exitDy=0;fontColor=#000000;" edge="1" parent="1" source="26" target="144">
                    <mxGeometry relative="1" as="geometry">
                        <mxPoint x="50" y="-10" as="sourcePoint"/>
                    </mxGeometry>
                </mxCell>
                <mxCell id="146" value="joined_at" style="ellipse;whiteSpace=wrap;html=1;align=center;fillColor=#FF9999;gradientColor=#FF3333;strokeWidth=2;fontColor=#000000;" vertex="1" parent="1">
                    <mxGeometry x="-85" y="100" width="60" height="40" as="geometry"/>
                </mxCell>
                <mxCell id="147" style="rounded=0;orthogonalLoop=1;jettySize=auto;html=1;exitX=0;exitY=0.5;exitDx=0;exitDy=0;fontColor=#000000;" edge="1" parent="1" source="26" target="146">
                    <mxGeometry relative="1" as="geometry">
                        <mxPoint x="90" y="10" as="sourcePoint"/>
                    </mxGeometry>
                </mxCell>
                <mxCell id="148" value="first_name" style="ellipse;whiteSpace=wrap;html=1;align=center;fillColor=#FFB570;gradientColor=#FF6666;strokeWidth=2;fontColor=#000000;fontSize=15;" vertex="1" parent="1">
                    <mxGeometry x="-330" y="-290" width="100" height="40" as="geometry"/>
                </mxCell>
                <mxCell id="149" value="second_name" style="ellipse;whiteSpace=wrap;html=1;align=center;fillColor=#FFB570;gradientColor=#FF6666;strokeWidth=2;fontColor=#000000;fontSize=15;" vertex="1" parent="1">
                    <mxGeometry x="-370" y="-240" width="110" height="40" as="geometry"/>
                </mxCell>
                <mxCell id="150" value="third_name" style="ellipse;whiteSpace=wrap;html=1;align=center;fillColor=#FFB570;gradientColor=#FF6666;strokeWidth=2;fontColor=#000000;fontSize=15;" vertex="1" parent="1">
                    <mxGeometry x="-370" y="-180" width="100" height="40" as="geometry"/>
                </mxCell>
                <mxCell id="151" value="fourth_name" style="ellipse;whiteSpace=wrap;html=1;align=center;fillColor=#FFB570;gradientColor=#FF6666;strokeWidth=2;fontColor=#000000;fontSize=15;" vertex="1" parent="1">
                    <mxGeometry x="-370" y="-130" width="100" height="40" as="geometry"/>
                </mxCell>
                <mxCell id="152" value="" style="endArrow=classic;html=1;rounded=0;entryX=1;entryY=0.5;entryDx=0;entryDy=0;exitX=0;exitY=0.5;exitDx=0;exitDy=0;fontColor=#000000;" edge="1" parent="1" source="71" target="148">
                    <mxGeometry width="50" height="50" relative="1" as="geometry">
                        <mxPoint x="-310" y="-100" as="sourcePoint"/>
                        <mxPoint x="-260" y="-150" as="targetPoint"/>
                    </mxGeometry>
                </mxCell>
                <mxCell id="153" value="" style="endArrow=classic;html=1;rounded=0;entryX=1;entryY=0.5;entryDx=0;entryDy=0;exitX=0;exitY=0.5;exitDx=0;exitDy=0;fontColor=#000000;" edge="1" parent="1" source="71" target="149">
                    <mxGeometry width="50" height="50" relative="1" as="geometry">
                        <mxPoint x="-240" y="-120" as="sourcePoint"/>
                        <mxPoint x="-300" y="-190" as="targetPoint"/>
                    </mxGeometry>
                </mxCell>
                <mxCell id="154" value="" style="endArrow=classic;html=1;rounded=0;exitX=0;exitY=0.5;exitDx=0;exitDy=0;fontColor=#000000;" edge="1" parent="1" source="71" target="150">
                    <mxGeometry width="50" height="50" relative="1" as="geometry">
                        <mxPoint x="-230" y="-110" as="sourcePoint"/>
                        <mxPoint x="-300" y="-140" as="targetPoint"/>
                    </mxGeometry>
                </mxCell>
                <mxCell id="155" value="" style="endArrow=classic;html=1;rounded=0;entryX=0.996;entryY=0.394;entryDx=0;entryDy=0;entryPerimeter=0;exitX=0;exitY=0.5;exitDx=0;exitDy=0;fontColor=#000000;" edge="1" parent="1" source="71" target="151">
                    <mxGeometry width="50" height="50" relative="1" as="geometry">
                        <mxPoint x="-240" y="-120" as="sourcePoint"/>
                        <mxPoint x="-290" y="-130" as="targetPoint"/>
                    </mxGeometry>
                </mxCell>
                <mxCell id="156" value="country" style="ellipse;whiteSpace=wrap;html=1;align=center;fillColor=#FFB570;gradientColor=#FF6666;strokeWidth=2;fontColor=#000000;fontSize=15;" vertex="1" parent="1">
                    <mxGeometry x="-125" y="-360" width="65" height="40" as="geometry"/>
                </mxCell>
                <mxCell id="157" value="city" style="ellipse;whiteSpace=wrap;html=1;align=center;fillColor=#FFB570;gradientColor=#FF6666;strokeWidth=2;fontColor=#000000;fontSize=15;" vertex="1" parent="1">
                    <mxGeometry x="-180" y="-360" width="40" height="40" as="geometry"/>
                </mxCell>
                <mxCell id="158" value="address" style="ellipse;whiteSpace=wrap;html=1;align=center;fillColor=#FFB570;gradientColor=#FF6666;strokeWidth=2;fontColor=#000000;fontSize=15;" vertex="1" parent="1">
                    <mxGeometry x="-260" y="-350" width="65" height="40" as="geometry"/>
                </mxCell>
                <mxCell id="159" value="" style="endArrow=classic;html=1;rounded=0;entryX=0.522;entryY=1.006;entryDx=0;entryDy=0;entryPerimeter=0;exitX=0.5;exitY=0;exitDx=0;exitDy=0;fontColor=#000000;" edge="1" parent="1" source="72" target="156">
                    <mxGeometry width="50" height="50" relative="1" as="geometry">
                        <mxPoint x="-310" y="-250" as="sourcePoint"/>
                        <mxPoint x="-260" y="-300" as="targetPoint"/>
                    </mxGeometry>
                </mxCell>
                <mxCell id="160" value="" style="endArrow=classic;html=1;rounded=0;entryX=0.5;entryY=1;entryDx=0;entryDy=0;exitX=0.5;exitY=0;exitDx=0;exitDy=0;fontColor=#000000;" edge="1" parent="1" source="72" target="157">
                    <mxGeometry width="50" height="50" relative="1" as="geometry">
                        <mxPoint x="-170" y="-200" as="sourcePoint"/>
                        <mxPoint x="-193" y="-310" as="targetPoint"/>
                    </mxGeometry>
                </mxCell>
                <mxCell id="161" value="" style="endArrow=classic;html=1;rounded=0;entryX=0.5;entryY=1;entryDx=0;entryDy=0;exitX=0.5;exitY=0;exitDx=0;exitDy=0;fontColor=#000000;" edge="1" parent="1" source="72" target="158">
                    <mxGeometry width="50" height="50" relative="1" as="geometry">
                        <mxPoint x="-180" y="-210" as="sourcePoint"/>
                        <mxPoint x="-270" y="-280" as="targetPoint"/>
                    </mxGeometry>
                </mxCell>
                <mxCell id="162" value="teach" style="rhombus;whiteSpace=wrap;html=1;fillColor=#00FFFF;fontColor=#000000;strokeColor=#000000;strokeWidth=2;fontSize=15;gradientColor=#009999;" vertex="1" parent="1">
                    <mxGeometry x="1030" y="90" width="80" height="80" as="geometry"/>
                </mxCell>
                <mxCell id="163" value="" style="endArrow=none;html=1;rounded=0;exitX=1;exitY=0.5;exitDx=0;exitDy=0;entryX=0.5;entryY=1;entryDx=0;entryDy=0;fontColor=#000000;" edge="1" parent="1" source="20" target="162">
                    <mxGeometry width="50" height="50" relative="1" as="geometry">
                        <mxPoint x="1060" y="120" as="sourcePoint"/>
                        <mxPoint x="1110" y="70" as="targetPoint"/>
                        <Array as="points">
                            <mxPoint x="1070" y="270"/>
                        </Array>
                    </mxGeometry>
                </mxCell>
                <mxCell id="164" value="1" style="text;html=1;align=center;verticalAlign=middle;resizable=0;points=[];autosize=1;strokeColor=none;fillColor=none;fontColor=#000000;" vertex="1" parent="1">
                    <mxGeometry x="795" y="240" width="30" height="30" as="geometry"/>
                </mxCell>
                <mxCell id="165" value="M" style="text;html=1;align=center;verticalAlign=middle;resizable=0;points=[];autosize=1;strokeColor=none;fillColor=none;fontColor=#000000;" vertex="1" parent="1">
                    <mxGeometry x="1150" y="-60" width="30" height="30" as="geometry"/>
                </mxCell>
                <mxCell id="166" value="study" style="rhombus;whiteSpace=wrap;html=1;fillColor=#CC99FF;fontColor=#000000;strokeColor=#000000;strokeWidth=2;fontSize=15;gradientColor=#6666FF;" vertex="1" parent="1">
                    <mxGeometry x="1025" y="-220" width="80" height="80" as="geometry"/>
                </mxCell>
                <mxCell id="167" value="M" style="text;html=1;align=center;verticalAlign=middle;resizable=0;points=[];autosize=1;strokeColor=none;fillColor=none;fontColor=#000000;" vertex="1" parent="1">
                    <mxGeometry x="1230" y="-115" width="30" height="30" as="geometry"/>
                </mxCell>
                <mxCell id="168" value="M" style="text;html=1;align=center;verticalAlign=middle;resizable=0;points=[];autosize=1;strokeColor=none;fillColor=none;fontColor=#000000;" vertex="1" parent="1">
                    <mxGeometry x="900" y="-302.5" width="30" height="30" as="geometry"/>
                </mxCell>
                <mxCell id="169" value="M" style="text;html=1;align=center;verticalAlign=middle;resizable=0;points=[];autosize=1;strokeColor=none;fillColor=none;fontColor=#000000;" vertex="1" parent="1">
                    <mxGeometry x="1530" y="270" width="30" height="30" as="geometry"/>
                </mxCell>
                <mxCell id="170" value="1" style="text;html=1;align=center;verticalAlign=middle;resizable=0;points=[];autosize=1;strokeColor=none;fillColor=none;fontColor=#000000;" vertex="1" parent="1">
                    <mxGeometry x="1230" y="-50" width="30" height="30" as="geometry"/>
                </mxCell>
                <mxCell id="171" value="have" style="rhombus;whiteSpace=wrap;html=1;fillColor=#00FFFF;fontColor=#000000;strokeColor=#000000;strokeWidth=2;fontSize=15;gradientColor=#009999;" vertex="1" parent="1">
                    <mxGeometry x="1190" y="260" width="80" height="80" as="geometry"/>
                </mxCell>
                <mxCell id="172" value="" style="endArrow=none;html=1;rounded=0;entryX=0.5;entryY=1;entryDx=0;entryDy=0;exitX=0.5;exitY=0;exitDx=0;exitDy=0;fontColor=#000000;" edge="1" parent="1" source="171" target="32">
                    <mxGeometry width="50" height="50" relative="1" as="geometry">
                        <mxPoint x="1050" y="240" as="sourcePoint"/>
                        <mxPoint x="1100" y="190" as="targetPoint"/>
                    </mxGeometry>
                </mxCell>
                <mxCell id="173" value="M" style="text;html=1;align=center;verticalAlign=middle;resizable=0;points=[];autosize=1;strokeColor=none;fillColor=none;fontColor=#000000;" vertex="1" parent="1">
                    <mxGeometry x="1620" y="250" width="30" height="30" as="geometry"/>
                </mxCell>
                <mxCell id="174" value="have" style="rhombus;whiteSpace=wrap;html=1;fillColor=#CC99FF;strokeWidth=2;fontSize=15;gradientColor=#6666FF;fontColor=#000000;" vertex="1" parent="1">
                    <mxGeometry x="1640" y="40" width="80" height="80" as="geometry"/>
                </mxCell>
                <mxCell id="175" value="M" style="text;html=1;align=center;verticalAlign=middle;resizable=0;points=[];autosize=1;strokeColor=none;fillColor=none;fontColor=#000000;" vertex="1" parent="1">
                    <mxGeometry x="1780" y="80" width="30" height="30" as="geometry"/>
                </mxCell>
                <mxCell id="176" value="have" style="rhombus;whiteSpace=wrap;html=1;fillColor=#CC99FF;strokeWidth=2;fontSize=15;gradientColor=#6666FF;fontColor=#000000;" vertex="1" parent="1">
                    <mxGeometry x="1820" y="-220" width="80" height="80" as="geometry"/>
                </mxCell>
                <mxCell id="177" value="N" style="text;html=1;align=center;verticalAlign=middle;resizable=0;points=[];autosize=1;strokeColor=none;fillColor=none;fontColor=#000000;" vertex="1" parent="1">
                    <mxGeometry x="1950" y="-182.5" width="30" height="30" as="geometry"/>
                </mxCell>
                <mxCell id="178" value="M" style="text;html=1;align=center;verticalAlign=middle;resizable=0;points=[];autosize=1;strokeColor=none;fillColor=none;fontColor=#000000;" vertex="1" parent="1">
                    <mxGeometry x="1860" y="35" width="30" height="30" as="geometry"/>
                </mxCell>
                <mxCell id="179" value="is_right" style="ellipse;whiteSpace=wrap;html=1;fillColor=#FF8000;fontColor=#000000;fontSize=15;strokeColor=#000000;gradientColor=#CC6600;" vertex="1" parent="1">
                    <mxGeometry x="1827.5" y="-342.5" width="65" height="40" as="geometry"/>
                </mxCell>
                <mxCell id="180" value="" style="endArrow=classic;html=1;rounded=0;entryX=0.5;entryY=1;entryDx=0;entryDy=0;fontColor=#000000;" edge="1" parent="1" source="176" target="179">
                    <mxGeometry width="50" height="50" relative="1" as="geometry">
                        <mxPoint x="1670" y="-130" as="sourcePoint"/>
                        <mxPoint x="1720" y="-180" as="targetPoint"/>
                    </mxGeometry>
                </mxCell>
                <mxCell id="181" value="answer" style="rhombus;whiteSpace=wrap;html=1;fillColor=#CC99FF;fontColor=#000000;strokeColor=#000000;strokeWidth=2;fontSize=15;gradientColor=#6666FF;" vertex="1" parent="1">
                    <mxGeometry x="1540" y="-360" width="80" height="80" as="geometry"/>
                </mxCell>
                <mxCell id="182" value="M" style="text;html=1;align=center;verticalAlign=middle;resizable=0;points=[];autosize=1;strokeColor=none;fillColor=none;fontColor=#000000;" vertex="1" parent="1">
                    <mxGeometry x="1550" y="250" width="30" height="30" as="geometry"/>
                </mxCell>
                <mxCell id="183" value="" style="ellipse;whiteSpace=wrap;html=1;fontColor=#000000;" vertex="1" parent="1">
                    <mxGeometry x="910" y="-610" width="70" height="50" as="geometry"/>
                </mxCell>
                <mxCell id="184" value="phones" style="ellipse;whiteSpace=wrap;html=1;align=center;fillColor=#FF9999;gradientColor=#FF3333;strokeWidth=2;fontColor=#000000;" vertex="1" parent="1">
                    <mxGeometry x="913.75" y="-605" width="62.5" height="40" as="geometry"/>
                </mxCell>
                <mxCell id="185" value="levels" style="rounded=0;whiteSpace=wrap;html=1;fillColor=#3399FF;strokeColor=#000000;fontColor=#000000;strokeWidth=2;fontSize=15;gradientColor=#9999FF;" vertex="1" parent="1">
                    <mxGeometry x="797.5" y="10" width="100" height="40" as="geometry"/>
                </mxCell>
                <mxCell id="186" value="have" style="rhombus;whiteSpace=wrap;html=1;fillColor=#00FFFF;fontColor=#000000;strokeColor=#000000;strokeWidth=2;fontSize=15;gradientColor=#009999;" vertex="1" parent="1">
                    <mxGeometry x="970" y="-5" width="65" height="70" as="geometry"/>
                </mxCell>
                <mxCell id="187" value="M" style="text;html=1;align=center;verticalAlign=middle;resizable=0;points=[];autosize=1;strokeColor=none;fillColor=none;fontColor=#000000;" vertex="1" parent="1">
                    <mxGeometry x="1150" y="-110" width="30" height="30" as="geometry"/>
                </mxCell>
                <mxCell id="188" value="1" style="text;html=1;align=center;verticalAlign=middle;resizable=0;points=[];autosize=1;strokeColor=none;fillColor=none;fontColor=#000000;" vertex="1" parent="1">
                    <mxGeometry x="890" y="5" width="30" height="30" as="geometry"/>
                </mxCell>
                <mxCell id="189" value="enroll" style="rhombus;whiteSpace=wrap;html=1;fillColor=#00FFFF;fontColor=#000000;strokeColor=#000000;strokeWidth=2;fontSize=15;gradientColor=#009999;" vertex="1" parent="1">
                    <mxGeometry x="815" y="-140" width="65" height="60" as="geometry"/>
                </mxCell>
                <mxCell id="190" value="" style="endArrow=none;html=1;rounded=0;entryX=0.5;entryY=1;entryDx=0;entryDy=0;exitX=0.5;exitY=0;exitDx=0;exitDy=0;fontColor=#000000;" edge="1" parent="1" source="185" target="189">
                    <mxGeometry width="50" height="50" relative="1" as="geometry">
                        <mxPoint x="830" as="sourcePoint"/>
                        <mxPoint x="960" y="-130" as="targetPoint"/>
                    </mxGeometry>
                </mxCell>
                <mxCell id="191" value="1" style="text;html=1;align=center;verticalAlign=middle;resizable=0;points=[];autosize=1;strokeColor=none;fillColor=none;fontColor=#000000;" vertex="1" parent="1">
                    <mxGeometry x="822.5" y="-20" width="30" height="30" as="geometry"/>
                </mxCell>
                <mxCell id="192" value="M" style="text;html=1;align=center;verticalAlign=middle;resizable=0;points=[];autosize=1;strokeColor=none;fillColor=none;fontColor=#000000;" vertex="1" parent="1">
                    <mxGeometry x="842.5" y="-305" width="30" height="30" as="geometry"/>
                </mxCell>
                <mxCell id="193" value="is_active" style="ellipse;whiteSpace=wrap;html=1;fillColor=#FF9999;gradientColor=#FF3333;strokeWidth=2;fontColor=#000000;" vertex="1" parent="1">
                    <mxGeometry x="575" y="-305" width="60" height="35" as="geometry"/>
                </mxCell>
                <mxCell id="194" value="" style="endArrow=classic;html=1;rounded=0;exitX=0.5;exitY=0;exitDx=0;exitDy=0;entryX=0.5;entryY=1;entryDx=0;entryDy=0;fontColor=#000000;" edge="1" parent="1" source="6" target="193">
                    <mxGeometry width="50" height="50" relative="1" as="geometry">
                        <mxPoint x="500" y="-220" as="sourcePoint"/>
                        <mxPoint x="550" y="-270" as="targetPoint"/>
                    </mxGeometry>
                </mxCell>
                <mxCell id="195" value="has" style="rhombus;whiteSpace=wrap;html=1;fillColor=#00FF80;fontColor=#000000;strokeColor=#000000;strokeWidth=2;fontSize=15;gradientColor=#00FF00;" vertex="1" parent="1">
                    <mxGeometry x="690" y="-135" width="45" height="50" as="geometry"/>
                </mxCell>
                <mxCell id="196" value="" style="endArrow=none;html=1;rounded=0;exitX=1;exitY=0.5;exitDx=0;exitDy=0;entryX=0;entryY=0.5;entryDx=0;entryDy=0;fontColor=#000000;" edge="1" parent="1" source="6" target="195">
                    <mxGeometry width="50" height="50" relative="1" as="geometry">
                        <mxPoint x="790" y="-160" as="sourcePoint"/>
                        <mxPoint x="840" y="-210" as="targetPoint"/>
                    </mxGeometry>
                </mxCell>
                <mxCell id="197" value="" style="endArrow=none;html=1;rounded=0;entryX=0.5;entryY=0;entryDx=0;entryDy=0;exitX=0;exitY=0.25;exitDx=0;exitDy=0;fontColor=#000000;" edge="1" parent="1" source="14" target="195">
                    <mxGeometry width="50" height="50" relative="1" as="geometry">
                        <mxPoint x="750" y="-310" as="sourcePoint"/>
                        <mxPoint x="738" y="-100" as="targetPoint"/>
                        <Array as="points">
                            <mxPoint x="710" y="-330"/>
                        </Array>
                    </mxGeometry>
                </mxCell>
                <mxCell id="198" value="1" style="text;html=1;align=center;verticalAlign=middle;resizable=0;points=[];autosize=1;strokeColor=none;fillColor=none;fontColor=#000000;" vertex="1" parent="1">
                    <mxGeometry x="796.25" y="-355" width="30" height="30" as="geometry"/>
                </mxCell>
                <mxCell id="199" value="1" style="text;html=1;align=center;verticalAlign=middle;resizable=0;points=[];autosize=1;strokeColor=none;fillColor=none;fontColor=#000000;" vertex="1" parent="1">
                    <mxGeometry x="575" y="-135" width="30" height="30" as="geometry"/>
                </mxCell>
                <mxCell id="200" value="1" style="text;html=1;align=center;verticalAlign=middle;resizable=0;points=[];autosize=1;strokeColor=none;fillColor=none;fontColor=#000000;" vertex="1" parent="1">
                    <mxGeometry x="525" y="-92.5" width="30" height="30" as="geometry"/>
                </mxCell>
                <mxCell id="201" value="1" style="text;html=1;align=center;verticalAlign=middle;resizable=0;points=[];autosize=1;strokeColor=none;fillColor=none;fontColor=#000000;" vertex="1" parent="1">
                    <mxGeometry x="670" y="240" width="30" height="30" as="geometry"/>
                </mxCell>
                <mxCell id="202" value="1" style="text;html=1;align=center;verticalAlign=middle;resizable=0;points=[];autosize=1;strokeColor=none;fillColor=none;fontColor=#000000;" vertex="1" parent="1">
                    <mxGeometry x="450" y="-145" width="30" height="30" as="geometry"/>
                </mxCell>
                <mxCell id="203" value="1" style="text;html=1;align=center;verticalAlign=middle;resizable=0;points=[];autosize=1;strokeColor=none;fillColor=none;fontColor=#000000;" vertex="1" parent="1">
                    <mxGeometry x="450" y="-100" width="30" height="30" as="geometry"/>
                </mxCell>
                <mxCell id="204" value="1" style="text;html=1;align=center;verticalAlign=middle;resizable=0;points=[];autosize=1;strokeColor=none;fillColor=none;fontColor=#000000;" vertex="1" parent="1">
                    <mxGeometry x="95" y="-90" width="30" height="30" as="geometry"/>
                </mxCell>
                <mxCell id="205" value="has" style="rhombus;whiteSpace=wrap;html=1;fillColor=#00FF80;fontColor=#000000;strokeColor=#000000;strokeWidth=2;fontSize=15;gradientColor=#00FF00;" vertex="1" parent="1">
                    <mxGeometry x="240" y="-117.5" width="50" height="55" as="geometry"/>
                </mxCell>
                <mxCell id="206" value="" style="endArrow=none;html=1;rounded=0;exitX=1;exitY=0.5;exitDx=0;exitDy=0;entryX=0;entryY=0.5;entryDx=0;entryDy=0;fontColor=#000000;" edge="1" parent="1" source="26" target="205">
                    <mxGeometry width="50" height="50" relative="1" as="geometry">
                        <mxPoint x="160" y="-130" as="sourcePoint"/>
                        <mxPoint x="210" y="-180" as="targetPoint"/>
                    </mxGeometry>
                </mxCell>
                <mxCell id="207" value="" style="endArrow=none;html=1;rounded=0;exitX=1;exitY=0.5;exitDx=0;exitDy=0;entryX=0;entryY=0.75;entryDx=0;entryDy=0;fontColor=#000000;" edge="1" parent="1" source="205" target="6">
                    <mxGeometry width="50" height="50" relative="1" as="geometry">
                        <mxPoint x="320" y="-90" as="sourcePoint"/>
                        <mxPoint x="450" y="-110" as="targetPoint"/>
                        <Array as="points">
                            <mxPoint x="390" y="-90"/>
                            <mxPoint x="390" y="-100"/>
                        </Array>
                    </mxGeometry>
                </mxCell>
                <mxCell id="208" value="has" style="rhombus;whiteSpace=wrap;html=1;fillColor=#00FF80;fontColor=#000000;strokeColor=#000000;strokeWidth=2;fontSize=15;gradientColor=#00FF00;" vertex="1" parent="1">
                    <mxGeometry x="245" y="-195" width="50" height="55" as="geometry"/>
                </mxCell>
                <mxCell id="209" value="" style="endArrow=none;html=1;rounded=0;exitX=1;exitY=0.5;exitDx=0;exitDy=0;fontColor=#000000;" edge="1" parent="1" source="208">
                    <mxGeometry width="50" height="50" relative="1" as="geometry">
                        <mxPoint x="320" y="-167.5" as="sourcePoint"/>
                        <mxPoint x="480" y="-120" as="targetPoint"/>
                        <Array as="points">
                            <mxPoint x="390" y="-167.5"/>
                            <mxPoint x="390" y="-120"/>
                        </Array>
                    </mxGeometry>
                </mxCell>
                <mxCell id="210" value="" style="endArrow=none;html=1;rounded=0;entryX=0.5;entryY=0;entryDx=0;entryDy=0;exitX=1;exitY=0.5;exitDx=0;exitDy=0;fontColor=#000000;" edge="1" parent="1" source="49" target="208">
                    <mxGeometry width="50" height="50" relative="1" as="geometry">
                        <mxPoint x="250" y="-280" as="sourcePoint"/>
                        <mxPoint x="210" y="-257.5" as="targetPoint"/>
                        <Array as="points">
                            <mxPoint x="270" y="-270"/>
                        </Array>
                    </mxGeometry>
                </mxCell>
                <mxCell id="211" value="1" style="text;html=1;align=center;verticalAlign=middle;resizable=0;points=[];autosize=1;strokeColor=none;fillColor=none;fontColor=#000000;" vertex="1" parent="1">
                    <mxGeometry x="160" y="-270" width="30" height="30" as="geometry"/>
                </mxCell>
                <mxCell id="212" value="has" style="rhombus;whiteSpace=wrap;html=1;fillColor=#00FF80;fontColor=#000000;strokeColor=#000000;strokeWidth=2;fontSize=15;gradientColor=#00FF00;" vertex="1" parent="1">
                    <mxGeometry x="505" y="120" width="50" height="55" as="geometry"/>
                </mxCell>
                <mxCell id="213" value="" style="endArrow=none;html=1;rounded=0;entryX=0;entryY=0.5;entryDx=0;entryDy=0;exitX=0.5;exitY=1;exitDx=0;exitDy=0;fontColor=#000000;" edge="1" parent="1" source="212" target="20">
                    <mxGeometry width="50" height="50" relative="1" as="geometry">
                        <mxPoint x="576" y="147.5" as="sourcePoint"/>
                        <mxPoint x="735" y="134.5" as="targetPoint"/>
                        <Array as="points">
                            <mxPoint x="530" y="270"/>
                        </Array>
                    </mxGeometry>
                </mxCell>
                <mxCell id="214" value="" style="endArrow=none;html=1;rounded=0;entryX=0.5;entryY=0;entryDx=0;entryDy=0;exitX=0.5;exitY=1;exitDx=0;exitDy=0;fontColor=#000000;" edge="1" parent="1" source="6" target="212">
                    <mxGeometry width="50" height="50" relative="1" as="geometry">
                        <mxPoint x="525" y="60" as="sourcePoint"/>
                        <mxPoint x="466" y="57.5" as="targetPoint"/>
                    </mxGeometry>
                </mxCell>
                <mxCell id="215" value="score" style="ellipse;whiteSpace=wrap;html=1;fillColor=#FF8000;fontColor=#000000;fontSize=15;strokeColor=#000000;gradientColor=#CC6600;" vertex="1" parent="1">
                    <mxGeometry x="1556.25" y="-470" width="47.5" height="30" as="geometry"/>
                </mxCell>
                <mxCell id="216" value="" style="endArrow=none;html=1;rounded=0;entryX=0.5;entryY=1;entryDx=0;entryDy=0;fontColor=#000000;" edge="1" parent="1" source="181" target="215">
                    <mxGeometry width="50" height="50" relative="1" as="geometry">
                        <mxPoint x="1420" y="-310" as="sourcePoint"/>
                        <mxPoint x="1470" y="-360" as="targetPoint"/>
                    </mxGeometry>
                </mxCell>
                <mxCell id="217" value="grade" style="ellipse;whiteSpace=wrap;html=1;align=center;fillColor=#FF8000;fontColor=#000000;fontSize=15;strokeColor=#000000;gradientColor=#CC6600;" vertex="1" parent="1">
                    <mxGeometry x="926.25" y="-130" width="50" height="40" as="geometry"/>
                </mxCell>
                <mxCell id="218" value="" style="endArrow=classic;html=1;rounded=0;exitX=1;exitY=0.5;exitDx=0;exitDy=0;entryX=0;entryY=0.5;entryDx=0;entryDy=0;fontColor=#000000;" edge="1" parent="1" source="189" target="217">
                    <mxGeometry width="50" height="50" relative="1" as="geometry">
                        <mxPoint x="1040" y="-130" as="sourcePoint"/>
                        <mxPoint x="1090" y="-180" as="targetPoint"/>
                    </mxGeometry>
                </mxCell>
                <mxCell id="219" value="departments" style="rounded=0;whiteSpace=wrap;html=1;fillColor=#3399FF;strokeColor=#000000;fontColor=#000000;strokeWidth=2;fontSize=15;gradientColor=#9999FF;" vertex="1" parent="1">
                    <mxGeometry x="615" y="135" width="100" height="40" as="geometry"/>
                </mxCell>
                <mxCell id="220" value="contain" style="rhombus;whiteSpace=wrap;html=1;fillColor=#00FFFF;strokeWidth=2;fontSize=15;gradientColor=#009999;fontColor=#000000;" vertex="1" parent="1">
                    <mxGeometry x="815" y="126.25" width="67.5" height="57.5" as="geometry"/>
                </mxCell>
                <mxCell id="221" value="belong" style="rhombus;whiteSpace=wrap;html=1;fontColor=#000000;strokeColor=#ffffff;fillColor=#00FFFF;strokeWidth=2;fontSize=15;gradientColor=#009999;" vertex="1" parent="1">
                    <mxGeometry x="626.25" y="-47.5" width="77.5" height="57.5" as="geometry"/>
                </mxCell>
                <mxCell id="222" value="" style="endArrow=none;html=1;rounded=0;exitX=1;exitY=0.5;exitDx=0;exitDy=0;entryX=0;entryY=0.5;entryDx=0;entryDy=0;fontColor=#000000;" edge="1" parent="1" source="219" target="220">
                    <mxGeometry width="50" height="50" relative="1" as="geometry">
                        <mxPoint x="750" y="60" as="sourcePoint"/>
                        <mxPoint x="800" y="10" as="targetPoint"/>
                    </mxGeometry>
                </mxCell>
                <mxCell id="223" value="1" style="text;html=1;align=center;verticalAlign=middle;resizable=0;points=[];autosize=1;strokeColor=none;fillColor=none;fontColor=#000000;" vertex="1" parent="1">
                    <mxGeometry x="707.5" y="130" width="30" height="30" as="geometry"/>
                </mxCell>
                <mxCell id="224" value="M" style="text;html=1;align=center;verticalAlign=middle;resizable=0;points=[];autosize=1;strokeColor=none;fillColor=none;fontColor=#000000;" vertex="1" parent="1">
                    <mxGeometry x="820" y="50" width="30" height="30" as="geometry"/>
                </mxCell>
                <mxCell id="225" value="" style="endArrow=none;html=1;rounded=0;exitX=0.536;exitY=-0.037;exitDx=0;exitDy=0;exitPerimeter=0;entryX=0.5;entryY=1;entryDx=0;entryDy=0;fontColor=#000000;" edge="1" parent="1" source="219" target="221">
                    <mxGeometry width="50" height="50" relative="1" as="geometry">
                        <mxPoint x="750" y="60" as="sourcePoint"/>
                        <mxPoint x="800" y="10" as="targetPoint"/>
                    </mxGeometry>
                </mxCell>
                <mxCell id="226" value="1" style="text;html=1;align=center;verticalAlign=middle;resizable=0;points=[];autosize=1;strokeColor=none;fillColor=none;fontColor=#000000;" vertex="1" parent="1">
                    <mxGeometry x="660" y="110" width="30" height="30" as="geometry"/>
                </mxCell>
                <mxCell id="227" value="M" style="text;html=1;align=center;verticalAlign=middle;resizable=0;points=[];autosize=1;strokeColor=none;fillColor=none;fontColor=#000000;" vertex="1" parent="1">
                    <mxGeometry x="795" y="-310" width="30" height="30" as="geometry"/>
                </mxCell>
                <mxCell id="228" value="&lt;b&gt;id&lt;/b&gt;" style="ellipse;whiteSpace=wrap;html=1;align=center;fontStyle=4;fillColor=#FF9999;gradientColor=#FF3333;strokeWidth=2;fontColor=#000000;" vertex="1" parent="1">
                    <mxGeometry x="900" y="90" width="50" height="40" as="geometry"/>
                </mxCell>
                <mxCell id="229" value="&lt;b&gt;id&lt;/b&gt;" style="ellipse;whiteSpace=wrap;html=1;align=center;fontStyle=4;fillColor=#FF9999;gradientColor=#FF3333;strokeWidth=2;fontColor=#000000;" vertex="1" parent="1">
                    <mxGeometry x="550" y="50" width="30" height="30" as="geometry"/>
                </mxCell>
                <mxCell id="230" value="" style="endArrow=classic;html=1;rounded=0;entryX=0;entryY=0;entryDx=0;entryDy=0;exitX=0.75;exitY=1;exitDx=0;exitDy=0;fontColor=#000000;" edge="1" parent="1" source="185" target="228">
                    <mxGeometry width="50" height="50" relative="1" as="geometry">
                        <mxPoint x="990" as="sourcePoint"/>
                        <mxPoint x="1040" y="-50" as="targetPoint"/>
                    </mxGeometry>
                </mxCell>
                <mxCell id="231" value="" style="endArrow=classic;html=1;rounded=0;entryX=0.5;entryY=1;entryDx=0;entryDy=0;exitX=0.25;exitY=0;exitDx=0;exitDy=0;fontColor=#000000;" edge="1" parent="1" source="219" target="229">
                    <mxGeometry width="50" height="50" relative="1" as="geometry">
                        <mxPoint x="865" y="60" as="sourcePoint"/>
                        <mxPoint x="925" y="145" as="targetPoint"/>
                    </mxGeometry>
                </mxCell>
                <mxCell id="232" value="" style="endArrow=classic;html=1;rounded=0;entryX=0.5;entryY=1;entryDx=0;entryDy=0;exitX=0.25;exitY=0;exitDx=0;exitDy=0;fontColor=#000000;" edge="1" parent="1" source="219" target="233">
                    <mxGeometry width="50" height="50" relative="1" as="geometry">
                        <mxPoint x="990" y="-10" as="sourcePoint"/>
                        <mxPoint x="594.75" y="-4.880000000000109" as="targetPoint"/>
                    </mxGeometry>
                </mxCell>
                <mxCell id="233" value="name" style="ellipse;whiteSpace=wrap;html=1;align=center;fillColor=#FF9999;gradientColor=#FF3333;strokeWidth=2;fontColor=#000000;" vertex="1" parent="1">
                    <mxGeometry x="600" y="50" width="40" height="30" as="geometry"/>
                </mxCell>
                <mxCell id="234" value="" style="shape=link;html=1;rounded=0;entryX=0.25;entryY=1;entryDx=0;entryDy=0;exitX=0.5;exitY=0;exitDx=0;exitDy=0;fontColor=#000000;" edge="1" parent="1" source="189" target="14">
                    <mxGeometry width="100" relative="1" as="geometry">
                        <mxPoint x="760" y="-80" as="sourcePoint"/>
                        <mxPoint x="860" y="-80" as="targetPoint"/>
                    </mxGeometry>
                </mxCell>
                <mxCell id="235" value="" style="shape=link;html=1;rounded=0;entryX=0.75;entryY=1;entryDx=0;entryDy=0;exitX=0;exitY=0.5;exitDx=0;exitDy=0;fontColor=#000000;" edge="1" parent="1" source="166" target="14">
                    <mxGeometry width="100" relative="1" as="geometry">
                        <mxPoint x="1030" y="-180" as="sourcePoint"/>
                        <mxPoint x="870" y="-290" as="targetPoint"/>
                        <Array as="points">
                            <mxPoint x="903" y="-180"/>
                        </Array>
                    </mxGeometry>
                </mxCell>
                <mxCell id="236" value="" style="shape=link;html=1;rounded=0;entryX=0;entryY=0.75;entryDx=0;entryDy=0;exitX=1;exitY=0.5;exitDx=0;exitDy=0;fontColor=#000000;" edge="1" parent="1" source="221" target="14">
                    <mxGeometry width="100" relative="1" as="geometry">
                        <mxPoint x="720" y="-20" as="sourcePoint"/>
                        <mxPoint x="800" y="-310" as="targetPoint"/>
                        <Array as="points">
                            <mxPoint x="760" y="-20"/>
                            <mxPoint x="760" y="-310"/>
                        </Array>
                    </mxGeometry>
                </mxCell>
                <mxCell id="237" value="" style="shape=link;html=1;rounded=0;exitX=0.5;exitY=0;exitDx=0;exitDy=0;entryX=0.5;entryY=1;entryDx=0;entryDy=0;fontColor=#000000;" edge="1" parent="1" source="220" target="185">
                    <mxGeometry width="100" relative="1" as="geometry">
                        <mxPoint x="700" y="90" as="sourcePoint"/>
                        <mxPoint x="840" y="60" as="targetPoint"/>
                    </mxGeometry>
                </mxCell>
                <mxCell id="238" value="" style="shape=link;html=1;rounded=0;exitX=1;exitY=0.5;exitDx=0;exitDy=0;entryX=0;entryY=0.5;entryDx=0;entryDy=0;fontColor=#000000;" edge="1" parent="1" source="171" target="37">
                    <mxGeometry width="100" relative="1" as="geometry">
                        <mxPoint x="1280" y="300" as="sourcePoint"/>
                        <mxPoint x="1370" y="300" as="targetPoint"/>
                    </mxGeometry>
                </mxCell>
                <mxCell id="239" value="" style="shape=link;html=1;rounded=0;entryX=0;entryY=0.75;entryDx=0;entryDy=0;exitX=0.5;exitY=0;exitDx=0;exitDy=0;fontColor=#000000;" edge="1" parent="1" source="162" target="32">
                    <mxGeometry width="100" relative="1" as="geometry">
                        <mxPoint x="1030" y="-60" as="sourcePoint"/>
                        <mxPoint x="1130" y="-60" as="targetPoint"/>
                        <Array as="points">
                            <mxPoint x="1070" y="-60"/>
                        </Array>
                    </mxGeometry>
                </mxCell>
                <mxCell id="240" value="" style="shape=link;html=1;rounded=0;entryX=0;entryY=0.25;entryDx=0;entryDy=0;exitX=0.5;exitY=0;exitDx=0;exitDy=0;fontColor=#000000;" edge="1" parent="1" source="186" target="32">
                    <mxGeometry width="100" relative="1" as="geometry">
                        <mxPoint x="990" y="-110" as="sourcePoint"/>
                        <mxPoint x="1090" y="-110" as="targetPoint"/>
                        <Array as="points">
                            <mxPoint x="1000" y="-80"/>
                        </Array>
                    </mxGeometry>
                </mxCell>
                <mxCell id="241" value="" style="shape=link;html=1;rounded=0;exitX=1;exitY=0.5;exitDx=0;exitDy=0;entryX=0;entryY=0.5;entryDx=0;entryDy=0;fontColor=#000000;" edge="1" parent="1" source="185" target="186">
                    <mxGeometry width="100" relative="1" as="geometry">
                        <mxPoint x="901.25" y="40" as="sourcePoint"/>
                        <mxPoint x="1001.25" y="40" as="targetPoint"/>
                    </mxGeometry>
                </mxCell>
                <mxCell id="242" value="" style="shape=link;html=1;rounded=0;entryX=0;entryY=0.5;entryDx=0;entryDy=0;exitX=1;exitY=0.5;exitDx=0;exitDy=0;fontColor=#000000;" edge="1" parent="1" source="174" target="40">
                    <mxGeometry width="100" relative="1" as="geometry">
                        <mxPoint x="1640" y="150" as="sourcePoint"/>
                        <mxPoint x="1780" y="70" as="targetPoint"/>
                    </mxGeometry>
                </mxCell>
                <mxCell id="243" value="" style="shape=link;html=1;rounded=0;entryX=0;entryY=0.5;entryDx=0;entryDy=0;exitX=0.75;exitY=0;exitDx=0;exitDy=0;fontColor=#000000;" edge="1" parent="1" source="37" target="174">
                    <mxGeometry width="100" relative="1" as="geometry">
                        <mxPoint x="1630" y="220" as="sourcePoint"/>
                        <mxPoint x="1700" y="170" as="targetPoint"/>
                        <Array as="points">
                            <mxPoint x="1620" y="80"/>
                        </Array>
                    </mxGeometry>
                </mxCell>
                <mxCell id="244" value="" style="shape=link;html=1;rounded=0;entryX=0;entryY=0.5;entryDx=0;entryDy=0;exitX=1;exitY=0.5;exitDx=0;exitDy=0;fontColor=#000000;" edge="1" parent="1" source="176" target="43">
                    <mxGeometry width="100" relative="1" as="geometry">
                        <mxPoint x="1870" y="-100" as="sourcePoint"/>
                        <mxPoint x="1970" y="-100" as="targetPoint"/>
                    </mxGeometry>
                </mxCell>
                <mxCell id="245" value="" style="shape=link;html=1;rounded=0;entryX=0.5;entryY=1;entryDx=0;entryDy=0;exitX=0.5;exitY=0;exitDx=0;exitDy=0;fontColor=#000000;" edge="1" parent="1" source="40" target="176">
                    <mxGeometry width="100" relative="1" as="geometry">
                        <mxPoint x="1840" y="40" as="sourcePoint"/>
                        <mxPoint x="1830" y="-90" as="targetPoint"/>
                    </mxGeometry>
                </mxCell>
                <mxCell id="246" value="N" style="text;html=1;align=center;verticalAlign=middle;resizable=0;points=[];autosize=1;strokeColor=none;fillColor=none;fontColor=#000000;" vertex="1" parent="1">
                    <mxGeometry x="926.25" y="-325" width="30" height="30" as="geometry"/>
                </mxCell>
            </root>
        </mxGraphModel>
    </diagram>
</mxfile>